<?xml version="1.0" encoding="utf-8"?>
<svg version="1.1" id="Layer_1" xmlns="http://www.w3.org/2000/svg" xmlns:xlink="http://www.w3.org/1999/xlink" x="0px" y="0px"
	 width="64px" height="64px" viewBox="0 0 64 64" enable-background="new 0 0 64 64" xml:space="preserve">
<path fill-rule="evenodd" clip-rule="evenodd" fill="#208A3C" d="M42.3,18.3c0-0.3,0-0.6,0-0.9c0-5.7-4.6-10.3-10.3-10.3
	s-10.3,4.6-10.3,10.3c0,0.3,0,0.6,0,0.9c-1.8,1-3.4,2.4-4.5,4.1l-8.1-4.4c-0.9-0.5-2.1-0.2-2.6,0.8c-0.5,0.9-0.2,2.1,0.8,2.6
	l8.2,4.4c-0.4,1.3-0.7,2.8-0.7,4.2v3.8H5.2c-1.1,0-1.9,0.9-1.9,1.9s0.9,1.9,1.9,1.9h9.6v1.9c0,1.9,0.3,3.7,0.9,5.4l-8.4,4.8
	c-0.9,0.5-1.2,1.7-0.7,2.6c0.5,0.9,1.7,1.2,2.6,0.7l8.1-4.7c3,5,8.5,8.4,14.8,8.4c6.3,0,11.8-3.4,14.8-8.4l8.1,4.7
	c0.9,0.5,2.1,0.2,2.6-0.7c0.5-0.9,0.2-2.1-0.7-2.6L48.4,45c0.6-1.7,0.9-3.5,0.9-5.4v-1.9h9.6c1.1,0,1.9-0.9,1.9-1.9
	c0-1.1-0.9-1.9-1.9-1.9h-9.6v-3.8c0-1.5-0.2-2.9-0.7-4.2l8.2-4.4c0.9-0.5,1.3-1.7,0.8-2.6c-0.5-0.9-1.7-1.3-2.6-0.8l-8.1,4.4
	C45.7,20.7,44.1,19.3,42.3,18.3z M25.5,16.9c0.9-0.2,1.7-0.3,2.7-0.3h7.7c0.9,0,1.8,0.1,2.7,0.3c-0.3-3.4-3.1-6-6.5-6
	C28.6,10.9,25.8,13.6,25.5,16.9z M18.6,30.1c0-5.3,4.3-9.6,9.6-9.6h7.7c5.3,0,9.6,4.3,9.6,9.6v9.6c0,7.4-6,13.4-13.4,13.4
	s-13.4-6-13.4-13.4V30.1z"/>
<path fill="#F2FCF3" d="M28.2,16.7c-0.9,0-1.8,0.1-2.7,0.3c0.3-3.4,3.1-6,6.5-6c3.4,0,6.2,2.6,6.5,6c-0.9-0.2-1.8-0.3-2.7-0.3H28.2z
	"/>
<path fill="#F2FCF3" d="M28.2,20.5c-5.3,0-9.6,4.3-9.6,9.6v9.6c0,7.4,6,13.4,13.4,13.4s13.4-6,13.4-13.4v-9.6c0-5.3-4.3-9.6-9.6-9.6
	H28.2z"/>
</svg>
